<?xml version="1.0" encoding="UTF-8"?> <svg xmlns="http://www.w3.org/2000/svg" width="2204.95" height="328.88" viewBox="0 0 2204.95 328.88"><defs><style>.a{fill:#272d34;}.b{fill:#5cc9ef;}</style></defs><path class="a" d="M1757.77-300l75.89,143.74c-2.65.12-4.56.27-6.47.27-24.48,0-49-.16-73.45.1-4.73,0-7.06-1.59-9-5.64-19.16-39.06-38.58-78-57.65-117.09-2.39-4.91-5.09-6.91-10.59-6.52a187.24,187.24,0,0,1-22,0c-4.37-.2-5.64,1.09-5.62,5.55.17,38.43.1,76.85.1,115.27V-156h-71V-484h5.27c36.81,0,73.62-.25,110.42.17,22.28.26,44,3.72,64.07,14.48,18.5,9.92,30.69,24.85,36,44.95a149.91,149.91,0,0,1-1.91,85.46c-4.58,14.39-13.64,25.27-25.92,33.71C1763.42-303.6,1760.88-302,1757.77-300ZM1648.94-413.37c0,18.33,0,36.76.13,55.2,0,1,1.79,2.88,2.76,2.89,15.82.09,31.68.57,47.45-.32,13.78-.78,21.78-7.6,23.35-18.39a81.33,81.33,0,0,0,.68-17.36c-1-13.12-7.41-21-20.33-21.75C1685.27-414.19,1667.46-413.37,1648.94-413.37Z" transform="translate(371.3 484.21)"></path><path class="a" d="M1277.65-312.67c.12-32.95,1.2-60.68,8.09-87.77,11.64-45.79,43.9-75.94,89.8-81.8,22.12-2.82,44.13-2.82,66,2.14,38.61,8.76,63.34,32.53,75.88,69.75,8,23.75,10.41,48.27,11,73.06.71,29.11.54,58.21-5.36,86.9-3.91,19-10.34,37.21-21.85,53.11-14.41,19.88-34.36,31.81-58,37.18-28,6.37-56.24,6.67-84-.94-34.68-9.5-57.21-32.32-69.51-65.78-7-19.11-9.3-39-10.73-59.12C1278.2-296.55,1277.91-307.19,1277.65-312.67Zm178.55-8.39-1.18-.07c0-4.49.11-9,0-13.47-.51-17.11-.77-34.26-6.22-50.75-4.69-14.17-13.46-24.61-28.42-28.08-6.87-1.59-14.18-1.77-21.28-1.76-21.68,0-36,11.14-42.26,31.86-4.51,15-5,30.45-5.48,45.88-.72,24.76-1.13,49.58,3.72,74,3.66,18.43,12.56,33,32.53,37.5a69.93,69.93,0,0,0,31.69-.16c11.62-2.74,20.75-9.18,25.75-20.16,2.94-6.44,5.85-13.3,6.66-20.23C1453.81-284.6,1454.77-302.85,1456.2-321.06Z" transform="translate(371.3 484.21)"></path><path class="a" d="M328-483.83c1.79-.11,2.94-.24,4.08-.24,23.15,0,46.31.07,69.46-.09,3.21,0,4.64.89,5.57,4q23.12,76.32,46.41,152.58c4.68,15.34,9.52,30.63,14.73,47.37,3.44-11.42,6.5-21.47,9.51-31.54q25-83.8,50-167.61c.68-2.28.81-4.77,4.51-4.75,24.63.15,49.26.08,74.76.08-2.12,6.34-4,12.24-6,18.08q-33.45,95.75-67,191.48c-13.27,37.94-26.62,75.85-39.78,113.83-1.28,3.72-2.87,5.19-7,5.1q-19.72-.45-39.47,0c-4.21.09-6-1.26-7.37-5.19q-22.77-66-45.86-131.8-31-88.69-61.92-177.38C331.07-474.45,329.63-479,328-483.83Z" transform="translate(371.3 484.21)"></path><path class="a" d="M995.71-396.85c-11.4-3.78-21.87-7.45-32.48-10.71-21.21-6.52-43-8.67-65.1-7.75-21.48.88-35.42,12.55-43.78,31.66C847.92-369,846-353.33,845-337.55c-1.41,22-1.14,43.95,4.32,65.38a98.55,98.55,0,0,0,10.8,26c8.88,14.84,23,21.26,40.2,21.8,29.74.94,58.19-4.84,85.79-15.51,2.9-1.12,5.83-2.14,9.29-3.41.15,2,.35,3.37.36,4.79,0,21.46-.08,42.92.1,64.38,0,3.65-1.23,5.17-4.56,6.4-20.72,7.62-42.34,10.39-64.14,11.09-17.41.56-35,.88-52.27-1.24-42.71-5.25-72.6-28.33-89-68.33-8.16-19.9-11.76-40.83-13.51-62.1-2.93-35.49-1.86-70.79,6.94-105.48,6.38-25.18,17.81-47.6,38.27-64.52,16.32-13.5,35.28-21.19,56.17-23.77,34.66-4.29,69.07-2,103.12,5.49a106,106,0,0,1,15.61,5.15c1.35.53,3.08,2.43,3.09,3.72C995.76-444.27,995.71-420.85,995.71-396.85Z" transform="translate(371.3 484.21)"></path><path class="b" d="M-212.66-328.63c4.34,3.44,8.74,6.45,12.59,10.05,12.72,11.9,18.57,27.32,21.6,43.95,4.2,23,3.21,45.67-5.28,67.66-9.09,23.53-26.63,38-50.33,45.4-14.92,4.67-30.37,5.64-45.9,5.65-28.47,0-56.95-.09-85.43.08-4.25,0-5.77-.94-5.77-5.48q.12-158.18-.12-316.35c0-4,.95-5.48,5.22-5.46,33.81.21,67.65-.7,101.41.51,29.57,1.07,54.22,12.94,69.19,40,7.13,12.89,9.35,27.21,10.1,41.77,1.2,23.22-3.92,44.58-18.74,63C-206.69-334.63-209.71-331.79-212.66-328.63Zm-118.27,77.24h-.14c0,15.79.12,31.59-.09,47.38-.06,4,1.24,5.15,5.12,5.08,12.14-.23,24.3,0,36.45-.21,10.8-.19,21.74.28,32.34-1.35,16.78-2.59,30.11-11,35.29-28.24,4.65-15.44,4.21-31.17-.07-46.7-3.72-13.5-12.63-22.07-26.22-25.31a87.91,87.91,0,0,0-18.69-2.7c-20-.35-39.95-.12-59.92-.22-2.88,0-4.16.69-4.14,3.9C-330.86-283.64-330.93-267.51-330.93-251.39Zm.24-96.39c.83.38,1.13.63,1.42.63,21.79-.07,43.6.35,65.36-.44,12-.43,21.83-6.49,28.58-16.78,7.45-11.38,7.72-24.24,6.81-37.05-1.67-23.48-13.61-36.25-36.94-37.8-20.05-1.33-40.22-.61-60.34-1-4.05-.08-5.07,1.37-5,5.16.18,16.78.12,33.56.14,50.35C-330.68-372.46-330.69-360.18-330.69-347.78Z" transform="translate(371.3 484.21)"></path><path class="a" d="M1107.2-155.93V-414.3h-5.78c-21.48,0-43-.11-64.45.1-4.36,0-5.68-1.13-5.62-5.58.24-19.62.1-39.25.11-58.88,0-1.63.14-3.26.23-5.14h223.92c.1,1.7.29,3.3.29,4.91,0,19.79-.11,39.58.11,59.38,0,4.24-1.32,5.31-5.37,5.28-21.49-.17-43-.08-64.45-.08H1180v6.15q0,122.51-.07,245c0,8.5.81,7.42-7.49,7.44q-30.74.08-61.46,0C1110-155.68,1109-155.81,1107.2-155.93Z" transform="translate(371.3 484.21)"></path><path class="b" d="M49.1-482.77v42.4H-83.22c-.16,2.15-.38,3.73-.38,5.32,0,27.61.09,55.22-.11,82.83,0,4.29,1.33,5.27,5.37,5.26,36.14-.13,72.28-.08,108.42-.08h6v43.4H-83.37V-199.2H48.88v43.29H39.45c-52.13,0-104.26-.08-156.39.12-5.26,0-6.35-1.74-6.35-6.56q.12-92.31,0-184.63c0-43.58,0-87.16-.09-130.74,0-4,.9-5.46,5.2-5.45q81.44.21,162.88.1C46-483.07,47.26-482.9,49.1-482.77Z" transform="translate(371.3 484.21)"></path><path class="a" d="M717.76-156H645.91V-483.83h71.85Z" transform="translate(371.3 484.21)"></path><path class="b" d="M283.19-440.06h-76v7.93q-.09,135.24-.06,270.47c0,4.74-1.45,6-6,5.85q-13.73-.45-27.48,0c-4.62.14-6.26-1-6.26-6.06q.11-134.49-.16-269a29.5,29.5,0,0,1,0-4c.56-4.24-1.38-5.38-5.41-5.36-21.49.14-43-.1-64.46.16-4.87.06-6.28-1.33-6.13-6.14.34-10.63.22-21.29,0-31.93-.06-3.5.75-5,4.66-5q91.44.17,182.88.07c2.21,0,4.35-.21,4.33,3.17C283.13-466.94,283.19-454,283.19-440.06Z" transform="translate(371.3 484.21)"></path></svg> 